<svg id="Layer_1" data-name="Layer 1" xmlns="http://www.w3.org/2000/svg" viewBox="0 0 216 216"><defs><style>.cls-1,.cls-3,.cls-4{fill:none;}.cls-1,.cls-2,.cls-3,.cls-4{stroke:#ff774d;stroke-linecap:round;}.cls-1,.cls-2{stroke-linejoin:round;stroke-width:3.62px;}.cls-2{fill:#fff;}.cls-3,.cls-4{stroke-miterlimit:10;}.cls-3{stroke-width:14.99px;}.cls-4{stroke-width:10.69px;}</style></defs><g id="Layer_2" data-name="Layer 2"><path class="cls-1" d="M85.3,132s18.1-41.3,21.1-47.3,9.9-10.3,21.1-.9h0c10.7,9.7,7.4,17.1,1.9,20.9a45.36,45.36,0,0,1-4.4,2.8c-11.7,7.4-39.5,24.7-39.5,24.7Z"/><line class="cls-1" x1="117.4" y1="98" x2="125.4" y2="106.6"/><line class="cls-1" x1="102.9" y1="113.6" x2="107.4" y2="117.8"/><line class="cls-1" x1="101.5" y1="95.8" x2="109.2" y2="103"/><path class="cls-2" d="M129,83.7l8.3-26.1C123.5,70.5,125.8,77.1,129,83.7Z"/><path class="cls-2" d="M128.6,83.9c16,2.1,19-2.9,21.7-8.6l-21.7,8.6"/><line class="cls-3" x1="180.5" y1="195" x2="144.9" y2="145.9"/><circle class="cls-4" cx="105.1" cy="90.4" r="62.4"/><path class="cls-1" d="M82.8,110.5s14-29,15.9-33.4,1-10.1-9.3-11.9h0C79.2,64,76.7,69.2,77.2,74c.1.7.2,2,.5,3.7,1.4,9.8,4.9,32.9,4.9,32.9h.2Z"/><line class="cls-1" x1="86.3" y1="77.4" x2="77.9" y2="77.1"/><line class="cls-1" x1="84.6" y1="92.5" x2="80.2" y2="92"/><line class="cls-1" x1="94.9" y1="85" x2="87.4" y2="84.2"/><path class="cls-2" d="M88.7,64.5,99,47.8C98.4,61.3,93.8,63.1,88.7,64.5Z"/><path class="cls-2" d="M88.8,64.8c-8.6-7.7-7.3-11.7-5.4-15.8l5.4,15.8"/></g></svg>