<?xml version="1.0" encoding="utf-8"?>
<!-- Generator: Adobe Illustrator 25.2.3, SVG Export Plug-In . SVG Version: 6.00 Build 0)  -->
<svg version="1.1" id="Layer_1" xmlns="http://www.w3.org/2000/svg" xmlns:xlink="http://www.w3.org/1999/xlink" x="0px" y="0px"
	 viewBox="0 0 216 216" style="enable-background:new 0 0 216 216;" xml:space="preserve">
<style type="text/css">
	.st0{fill:#FF774D;}
	.st1{fill:none;stroke:#FFFFFF;stroke-width:3.6169;stroke-linecap:round;stroke-linejoin:round;stroke-miterlimit:10;}
	.st2{fill:#FFFFFF;stroke:#FFFFFF;stroke-width:3.6169;stroke-linecap:round;stroke-linejoin:round;stroke-miterlimit:10;}
	.st3{fill:none;stroke:#FFFFFF;stroke-width:14.9893;stroke-linecap:round;stroke-miterlimit:10;}
	.st4{fill:none;stroke:#FFFFFF;stroke-width:10.6902;stroke-linecap:round;stroke-miterlimit:10;}
</style>
<g id="Layer_3">
	<rect x="-1.6" y="-1.3" class="st0" width="219.4" height="218.1"/>
</g>
<g id="Layer_2_1_">
	<g>
		<path class="st1" d="M85.3,132c0,0,18.1-41.3,21.1-47.3c3-6,9.9-10.3,21.1-0.9l0,0c10.7,9.7,7.4,17.1,1.9,20.9
			c-0.8,0.6-2.3,1.6-4.4,2.8c-11.7,7.4-39.5,24.7-39.5,24.7L85.3,132z"/>
		<line class="st1" x1="117.4" y1="98" x2="125.4" y2="106.6"/>
		<line class="st1" x1="102.9" y1="113.6" x2="107.4" y2="117.8"/>
		<line class="st1" x1="101.5" y1="95.8" x2="109.2" y2="103"/>
		<path class="st2" d="M129,83.7l8.3-26.1C123.5,70.5,125.8,77.1,129,83.7z"/>
		<path class="st2" d="M128.6,83.9c16,2.1,19-2.9,21.7-8.6L128.6,83.9"/>
	</g>
	<g>
		<line class="st3" x1="180.5" y1="195" x2="144.9" y2="145.9"/>
		<circle class="st4" cx="105.1" cy="90.4" r="62.4"/>
	</g>
	<g>
		<path class="st1" d="M82.8,110.5c0,0,14-29,15.9-33.4c1.9-4.4,1-10.1-9.3-11.9v0C79.2,64,76.7,69.2,77.2,74c0.1,0.7,0.2,2,0.5,3.7
			c1.4,9.8,4.9,32.9,4.9,32.9H82.8z"/>
		<line class="st1" x1="86.3" y1="77.4" x2="77.9" y2="77.1"/>
		<line class="st1" x1="84.6" y1="92.5" x2="80.2" y2="92"/>
		<line class="st1" x1="94.9" y1="85" x2="87.4" y2="84.2"/>
		<path class="st2" d="M88.7,64.5L99,47.8C98.4,61.3,93.8,63.1,88.7,64.5z"/>
		<path class="st2" d="M88.8,64.8c-8.6-7.7-7.3-11.7-5.4-15.8L88.8,64.8"/>
	</g>
</g>
</svg>
